
<svg width="64" height="64" viewBox="0 0 64 64" xmlns="http://www.w3.org/2000/svg" fill="none">
  <!-- Person head -->
  <circle cx="20" cy="20" r="6" fill="#457B9D"/>

  <!-- Person body -->
  <path d="M14 30 C14 26, 26 26, 26 30 V38 H14 Z" fill="#457B9D"/>

  <!-- Speech bubble -->
  <path d="M32 10 H52 C54 10, 56 12, 56 14 V26 C56 28, 54 30, 52 30 H40 L34 34 V30 H32 C30 30, 28 28, 28 26 V14 C28 12, 30 10, 32 10 Z" 
        fill="#457B9D" stroke="#457B9D" stroke-width="2"/>

  <!-- Lines inside speech bubble -->
  <line x1="34" y1="16" x2="50" y2="16" stroke="#457B9D" stroke-width="1.5"/>
  <line x1="34" y1="20" x2="48" y2="20" stroke="#457B9D" stroke-width="1.5"/>
  <line x1="34" y1="24" x2="46" y2="24" stroke="#457B9D" stroke-width="1.5"/>
</svg>
